<?xml version="1.0" standalone="no"?>
<!DOCTYPE svg PUBLIC "-//W3C//DTD SVG 20010904//EN"
 "http://www.w3.org/TR/2001/REC-SVG-20010904/DTD/svg10.dtd">
<svg version="1.0" xmlns="http://www.w3.org/2000/svg"
 width="245.000000pt" height="244.000000pt" viewBox="0 0 245.000000 244.000000"
 preserveAspectRatio="xMidYMid meet">

<g transform="translate(0.000000,244.000000) scale(0.100000,-0.100000)"
fill="#000000" stroke="none">
<path d="M735 1919 c-181 -24 -322 -150 -370 -334 -20 -77 -20 -252 0 -328 33
-127 110 -230 213 -285 75 -40 136 -53 247 -53 103 1 170 16 247 57 l53 29 3
69 3 69 -33 -25 c-132 -101 -299 -123 -436 -57 -119 58 -174 171 -174 359 0
190 55 300 179 362 61 30 74 32 157 32 107 -1 165 -19 249 -75 l57 -39 0 69 0
70 -63 30 c-100 48 -214 65 -332 50z"/>
<path d="M1220 1901 c0 -11 347 -926 362 -954 8 -15 20 -17 81 -15 l71 3 183
475 c100 261 182 481 182 488 1 10 -16 12 -65 10 l-66 -3 -55 -145 c-186 -492
-245 -646 -252 -653 -4 -4 -75 174 -158 395 l-150 403 -66 3 c-40 2 -67 -1
-67 -7z"/>
<path d="M640 780 c-31 -31 -27 -93 6 -119 31 -24 76 -27 94 -6 10 12 6 13
-24 8 -45 -7 -76 17 -76 59 0 43 34 71 77 63 24 -4 33 -3 28 4 -11 19 -83 13
-105 -9z"/>
<path d="M790 773 c-42 -53 -5 -133 60 -133 59 0 94 96 50 140 -30 30 -83 27
-110 -7z m85 3 c22 -16 26 -76 6 -100 -16 -19 -54 -21 -69 -3 -20 24 -18 79 4
101 19 20 35 20 59 2z"/>
<path d="M960 719 c0 -51 4 -78 10 -74 6 3 10 32 10 63 l0 57 36 -63 c20 -35
41 -61 47 -59 15 5 22 157 7 157 -6 0 -10 -24 -10 -55 0 -30 -3 -55 -7 -55 -5
0 -21 25 -38 55 -42 79 -55 73 -55 -26z"/>
<path d="M1130 773 c-52 -67 15 -157 94 -127 29 11 16 21 -26 20 -36 -1 -44 3
-55 25 -27 56 16 107 76 92 17 -4 22 -2 17 6 -4 6 -25 11 -46 11 -30 0 -43 -6
-60 -27z"/>
<path d="M1280 720 l0 -80 44 0 c25 0 48 5 51 10 4 6 -10 10 -34 10 -39 0 -41
2 -41 30 0 28 3 30 35 30 19 0 35 5 35 10 0 6 -16 10 -35 10 -28 0 -35 4 -35
20 0 16 7 20 34 20 19 0 38 5 41 10 4 6 -13 10 -44 10 l-51 0 0 -80z"/>
<path d="M1412 723 c3 -77 20 -108 26 -46 3 28 7 32 35 35 24 2 34 10 41 30
14 39 -6 58 -61 58 l-44 0 3 -77z m82 42 c6 -17 -19 -45 -40 -45 -9 0 -14 11
-14 30 0 25 4 30 24 30 13 0 26 -7 30 -15z"/>
<path d="M1530 790 c0 -5 11 -10 25 -10 24 0 25 -2 25 -64 0 -36 5 -68 10 -71
6 -4 10 20 10 64 0 69 1 71 24 71 14 0 28 5 31 10 4 6 -18 10 -59 10 -37 0
-66 -4 -66 -10z"/>
<path d="M1697 782 c-24 -27 -22 -97 3 -122 45 -45 120 -7 120 61 0 52 -24 79
-69 79 -24 0 -44 -7 -54 -18z m83 -12 c40 -40 17 -110 -35 -110 -43 0 -62 75
-28 112 21 23 38 23 63 -2z"/>
<path d="M921 488 c12 -29 26 -65 31 -80 16 -45 31 -33 61 45 30 78 32 87 18
87 -4 0 -18 -27 -30 -60 -12 -33 -26 -58 -30 -56 -4 3 -16 30 -26 60 -11 31
-25 56 -32 56 -9 0 -7 -14 8 -52z"/>
<path d="M1070 460 c0 -47 4 -80 10 -80 6 0 10 33 10 80 0 47 -4 80 -10 80 -6
0 -10 -33 -10 -80z"/>
<path d="M1175 531 c-6 -12 -55 -139 -55 -146 0 -14 20 -2 25 15 5 15 15 20
45 20 30 0 40 -5 45 -20 6 -18 25 -29 25 -13 0 3 -12 39 -27 80 -25 67 -43 87
-58 64z m32 -56 c11 -33 10 -35 -13 -35 -25 0 -28 9 -18 48 9 31 19 27 31 -13z"/>
<path d="M1290 455 c0 -69 -3 -86 -17 -94 -10 -5 -14 -13 -10 -17 4 -5 16 -3
25 2 14 9 18 29 20 103 2 58 -1 91 -8 91 -6 0 -10 -33 -10 -85z"/>
<path d="M1352 463 l3 -78 48 -3 c28 -2 47 1 47 7 0 6 -16 11 -35 11 -32 0
-35 2 -35 30 0 28 3 30 36 30 21 0 33 4 29 10 -3 6 -19 10 -36 10 -22 0 -29 5
-29 20 0 16 7 20 34 20 19 0 38 5 41 10 4 6 -15 10 -50 10 l-56 0 3 -77z"/>
<path d="M1500 526 c-20 -25 -8 -58 25 -69 41 -13 55 -26 48 -44 -4 -11 -17
-14 -45 -11 -23 2 -37 0 -35 -7 6 -18 73 -18 91 0 29 30 20 54 -29 75 -63 27
-55 70 11 54 14 -4 24 -2 24 5 0 16 -75 13 -90 -3z"/>
</g>
</svg>
