<svg xmlns="http://www.w3.org/2000/svg" xmlns:xlink="http://www.w3.org/1999/xlink" width="300" zoomAndPan="magnify" viewBox="0 0 224.87999 225" height="300" preserveAspectRatio="xMidYMid meet" version="1.0"><defs><g/><clipPath id="id1"><path d="M 86.796875 93 L 103 93 L 103 106 L 86.796875 106 Z M 86.796875 93 " clip-rule="nonzero"/></clipPath><clipPath id="id2"><path d="M 89 63.207031 L 137.769531 63.207031 L 137.769531 126.921875 L 89 126.921875 Z M 89 63.207031 " clip-rule="nonzero"/></clipPath></defs><path fill="#000000" d="M 96.371094 87.097656 L 104.925781 90.480469 L 107.515625 103.8125 L 113.417969 95.355469 L 120.652344 101.105469 L 125.511719 73.335938 Z M 106.582031 90.277344 L 113.695312 85.753906 L 108.609375 91.664062 L 107.863281 96.808594 Z M 109.320312 98.332031 L 110.144531 92.757812 L 112.109375 94.316406 Z M 119.488281 98.0625 L 111.082031 91.367188 L 118.007812 81.832031 L 105.554688 88.945312 L 100.589844 86.964844 L 123.320312 76.230469 Z M 119.488281 98.0625 " fill-opacity="1" fill-rule="nonzero"/><g clip-path="url(#id1)"><path fill="#000000" d="M 86.851562 103.339844 L 86.851562 105.847656 L 102.964844 95.53125 L 102.539062 93.320312 Z M 86.851562 103.339844 " fill-opacity="1" fill-rule="nonzero"/></g><g clip-path="url(#id2)"><path fill="#000000" d="M 113.804688 63.207031 C 100.601562 63.207031 89.898438 74.007812 89.898438 87.328125 C 89.898438 90.035156 90.296875 92.675781 90.992188 95.234375 L 89.722656 96.042969 L 89.722656 98.546875 L 100.242188 91.773438 L 97.839844 90.832031 L 92.820312 94.0625 C 92.273438 91.867188 91.964844 89.617188 91.964844 87.328125 C 91.964844 75.179688 101.761719 65.308594 113.789062 65.308594 C 125.832031 65.308594 135.628906 75.195312 135.628906 87.328125 C 135.628906 102.882812 121.425781 116.621094 113.804688 124 C 109.171875 119.53125 102.136719 112.714844 97.320312 104.582031 L 103.886719 100.324219 L 103.457031 98.128906 L 91.980469 105.550781 L 91.980469 108.015625 L 95.570312 105.710938 C 101.121094 115.046875 109.359375 122.574219 113.804688 126.921875 C 120.890625 119.988281 137.710938 104.890625 137.710938 87.355469 C 137.710938 73.996094 127.003906 63.207031 113.804688 63.207031 Z M 113.804688 63.207031 " fill-opacity="1" fill-rule="nonzero"/></g><g fill="#ffffff" fill-opacity="1"><g transform="translate(35.963481, 152.958725)"><g><path d="M 13.316406 -5.582031 C 12.640625 -4.132812 10.996094 -3.140625 9.304688 -3.140625 C 6.644531 -3.140625 4.519531 -5.414062 4.519531 -8.21875 C 4.519531 -10.996094 6.644531 -13.292969 9.304688 -13.292969 C 10.972656 -13.292969 12.613281 -12.375 13.292969 -10.898438 L 17.328125 -10.898438 C 16.214844 -14.257812 13.050781 -16.675781 9.304688 -16.675781 C 4.640625 -16.675781 0.847656 -12.882812 0.847656 -8.21875 C 0.847656 -3.550781 4.640625 0.242188 9.304688 0.242188 C 13.050781 0.242188 16.242188 -2.199219 17.351562 -5.582031 Z M 13.316406 -5.582031 "/></g></g></g><g fill="#ffffff" fill-opacity="1"><g transform="translate(56.333754, 152.958725)"><g><path d="M 14.136719 -8.242188 C 14.136719 -5.703125 11.84375 -3.382812 9.304688 -3.382812 C 6.765625 -3.382812 4.472656 -5.703125 4.472656 -8.242188 C 4.472656 -10.777344 6.765625 -13.074219 9.304688 -13.074219 C 11.84375 -13.074219 14.136719 -10.777344 14.136719 -8.242188 Z M 17.761719 -8.21875 C 17.761719 -12.761719 13.847656 -16.675781 9.304688 -16.675781 C 4.761719 -16.675781 0.847656 -12.761719 0.847656 -8.21875 C 0.847656 -3.671875 4.761719 0.242188 9.304688 0.242188 C 13.847656 0.242188 17.761719 -3.671875 17.761719 -8.21875 Z M 17.761719 -8.21875 "/></g></g></g><g fill="#ffffff" fill-opacity="1"><g transform="translate(77.356427, 152.958725)"><g><path d="M 14.355469 0 L 14.355469 -16.433594 L 10.730469 -16.433594 L 10.730469 -6.1875 L 5.074219 -16.433594 L 1.449219 -16.433594 L 1.449219 0 L 5.074219 0 L 5.074219 -10.246094 L 10.730469 0 Z M 14.355469 0 "/></g></g></g><g fill="#ffffff" fill-opacity="1"><g transform="translate(95.5762, 152.958725)"><g><path d="M 13.316406 -5.582031 C 12.640625 -4.132812 10.996094 -3.140625 9.304688 -3.140625 C 6.644531 -3.140625 4.519531 -5.414062 4.519531 -8.21875 C 4.519531 -10.996094 6.644531 -13.292969 9.304688 -13.292969 C 10.972656 -13.292969 12.613281 -12.375 13.292969 -10.898438 L 17.328125 -10.898438 C 16.214844 -14.257812 13.050781 -16.675781 9.304688 -16.675781 C 4.640625 -16.675781 0.847656 -12.882812 0.847656 -8.21875 C 0.847656 -3.550781 4.640625 0.242188 9.304688 0.242188 C 13.050781 0.242188 16.242188 -2.199219 17.351562 -5.582031 Z M 13.316406 -5.582031 "/></g></g></g><g fill="#ffffff" fill-opacity="1"><g transform="translate(115.946472, 152.958725)"><g><path d="M 10.972656 -3.285156 L 5.074219 -3.285156 L 5.074219 -6.597656 L 10.730469 -6.597656 L 10.730469 -9.882812 L 5.074219 -9.882812 L 5.074219 -13.148438 L 10.972656 -13.148438 L 10.972656 -16.433594 L 1.449219 -16.433594 L 1.449219 0 L 10.972656 0 Z M 10.972656 -3.285156 "/></g></g></g><g fill="#ffffff" fill-opacity="1"><g transform="translate(130.783435, 152.958725)"><g><path d="M 5.074219 -5.871094 L 7.613281 -5.871094 C 10.269531 -5.871094 12.640625 -7.832031 12.640625 -11.164062 C 12.640625 -14.28125 10.269531 -16.433594 7.613281 -16.433594 L 1.449219 -16.433594 L 1.449219 0 L 5.074219 0 Z M 7.007812 -13.582031 C 8.070312 -13.582031 9.183594 -12.664062 9.183594 -11.164062 C 9.183594 -9.59375 8.070312 -8.722656 7.007812 -8.722656 L 5.074219 -8.722656 L 5.074219 -13.582031 Z M 7.007812 -13.582031 "/></g></g></g><g fill="#ffffff" fill-opacity="1"><g transform="translate(146.200309, 152.958725)"><g><path d="M 8.433594 -13.148438 L 13.121094 -13.148438 L 13.121094 -16.433594 L 0.121094 -16.433594 L 0.121094 -13.148438 L 4.808594 -13.148438 L 4.808594 0 L 8.433594 0 Z M 8.433594 -13.148438 "/></g></g></g><g fill="#ffffff" fill-opacity="1"><g transform="translate(161.858822, 152.958725)"><g><path d="M 14.136719 -8.242188 C 14.136719 -5.703125 11.84375 -3.382812 9.304688 -3.382812 C 6.765625 -3.382812 4.472656 -5.703125 4.472656 -8.242188 C 4.472656 -10.777344 6.765625 -13.074219 9.304688 -13.074219 C 11.84375 -13.074219 14.136719 -10.777344 14.136719 -8.242188 Z M 17.761719 -8.21875 C 17.761719 -12.761719 13.847656 -16.675781 9.304688 -16.675781 C 4.761719 -16.675781 0.847656 -12.761719 0.847656 -8.21875 C 0.847656 -3.671875 4.761719 0.242188 9.304688 0.242188 C 13.847656 0.242188 17.761719 -3.671875 17.761719 -8.21875 Z M 17.761719 -8.21875 "/></g></g></g><g fill="#ffffff" fill-opacity="1"><g transform="translate(182.873359, 152.958725)"><g/></g></g><g fill="#ffffff" fill-opacity="1"><g transform="translate(93.692101, 168.619609)"><g><path d="M 5.476562 -1.640625 L 2.53125 -1.640625 L 2.53125 -3.292969 L 5.355469 -3.292969 L 5.355469 -4.933594 L 2.53125 -4.933594 L 2.53125 -6.5625 L 5.476562 -6.5625 L 5.476562 -8.203125 L 0.722656 -8.203125 L 0.722656 0 L 5.476562 0 Z M 5.476562 -1.640625 "/></g></g></g><g fill="#ffffff" fill-opacity="1"><g transform="translate(102.299596, 168.619609)"><g><path d="M 0.628906 -0.929688 C 0.628906 -0.351562 1.097656 0.121094 1.6875 0.121094 C 2.265625 0.121094 2.75 -0.351562 2.75 -0.929688 C 2.75 -1.519531 2.265625 -1.988281 1.6875 -1.988281 C 1.097656 -1.988281 0.628906 -1.519531 0.628906 -0.929688 Z M 0.628906 -0.929688 "/></g></g></g><g fill="#ffffff" fill-opacity="1"><g transform="translate(108.086873, 168.619609)"><g><path d="M 8.25 -8.203125 L 6.296875 -8.203125 L 4.59375 -3.59375 L 4.148438 -2.304688 L 3.703125 -3.59375 L 2.015625 -8.203125 L 0.0585938 -8.203125 L 3.378906 0 L 4.933594 0 Z M 8.25 -8.203125 "/></g></g></g><g fill="#ffffff" fill-opacity="1"><g transform="translate(118.80351, 168.619609)"><g><path d="M 0.628906 -0.929688 C 0.628906 -0.351562 1.097656 0.121094 1.6875 0.121094 C 2.265625 0.121094 2.75 -0.351562 2.75 -0.929688 C 2.75 -1.519531 2.265625 -1.988281 1.6875 -1.988281 C 1.097656 -1.988281 0.628906 -1.519531 0.628906 -0.929688 Z M 0.628906 -0.929688 "/></g></g></g><g fill="#ffffff" fill-opacity="1"><g transform="translate(124.590785, 168.619609)"><g><path d="M 4.210938 -6.5625 L 6.550781 -6.5625 L 6.550781 -8.203125 L 0.0585938 -8.203125 L 0.0585938 -6.5625 L 2.398438 -6.5625 L 2.398438 0 L 4.210938 0 Z M 4.210938 -6.5625 "/></g></g></g></svg>